G75*
%MOIN*%
%OFA0B0*%
%FSLAX25Y25*%
%IPPOS*%
%LPD*%
%AMOC8*
5,1,8,0,0,1.08239X$1,22.5*
%
%ADD10C,0.13100*%
%ADD11OC8,0.07400*%
%ADD12OC8,0.15600*%
%ADD13C,0.40600*%
%ADD14C,0.00500*%
%ADD15C,0.08000*%
%ADD16OC8,0.09200*%
%ADD17R,0.08000X0.08000*%
%ADD18OC8,0.08000*%
D10*
X0074750Y0069750D03*
X0074750Y0132250D03*
D11*
X0146000Y0116000D03*
X0146000Y0106000D03*
X0146000Y0096000D03*
X0146000Y0086000D03*
X0176000Y0086000D03*
X0176000Y0096000D03*
X0176000Y0106000D03*
X0176000Y0116000D03*
D12*
X0276000Y0143000D03*
X0276000Y0059000D03*
D13*
X0276000Y0101000D03*
D14*
X0249878Y0115658D02*
X0302122Y0115658D01*
X0301847Y0116156D02*
X0250153Y0116156D01*
X0250429Y0116655D02*
X0301571Y0116655D01*
X0301402Y0116961D02*
X0303029Y0114017D01*
X0304316Y0110908D01*
X0305248Y0107676D01*
X0305811Y0104359D01*
X0306000Y0101000D01*
X0305811Y0097641D01*
X0305248Y0094324D01*
X0304316Y0091092D01*
X0303029Y0087983D01*
X0301402Y0085039D01*
X0299455Y0082295D01*
X0297213Y0079787D01*
X0294705Y0077545D01*
X0291961Y0075598D01*
X0289017Y0073971D01*
X0285908Y0072684D01*
X0282676Y0071752D01*
X0279359Y0071189D01*
X0276000Y0071000D01*
X0272641Y0071189D01*
X0269324Y0071752D01*
X0266092Y0072684D01*
X0262983Y0073971D01*
X0260039Y0075598D01*
X0257295Y0077545D01*
X0254787Y0079787D01*
X0252545Y0082295D01*
X0250598Y0085039D01*
X0248971Y0087983D01*
X0247684Y0091092D01*
X0246752Y0094324D01*
X0246189Y0097641D01*
X0246000Y0101000D01*
X0246189Y0104359D01*
X0246752Y0107676D01*
X0247684Y0110908D01*
X0248971Y0114017D01*
X0250598Y0116961D01*
X0252545Y0119705D01*
X0254787Y0122213D01*
X0257295Y0124455D01*
X0260039Y0126402D01*
X0262983Y0128029D01*
X0266092Y0129316D01*
X0269324Y0130248D01*
X0272641Y0130811D01*
X0276000Y0131000D01*
X0279359Y0130811D01*
X0282676Y0130248D01*
X0285908Y0129316D01*
X0289017Y0128029D01*
X0291961Y0126402D01*
X0294705Y0124455D01*
X0297213Y0122213D01*
X0299455Y0119705D01*
X0301402Y0116961D01*
X0301265Y0117153D02*
X0250735Y0117153D01*
X0251088Y0117652D02*
X0300912Y0117652D01*
X0300558Y0118150D02*
X0251442Y0118150D01*
X0251796Y0118649D02*
X0300204Y0118649D01*
X0299851Y0119147D02*
X0252149Y0119147D01*
X0252503Y0119646D02*
X0299497Y0119646D01*
X0299062Y0120144D02*
X0252938Y0120144D01*
X0253383Y0120643D02*
X0298617Y0120643D01*
X0298171Y0121141D02*
X0253829Y0121141D01*
X0254274Y0121640D02*
X0297726Y0121640D01*
X0297280Y0122138D02*
X0254720Y0122138D01*
X0255261Y0122637D02*
X0296739Y0122637D01*
X0296181Y0123135D02*
X0255819Y0123135D01*
X0256376Y0123634D02*
X0295624Y0123634D01*
X0295066Y0124132D02*
X0256934Y0124132D01*
X0257543Y0124631D02*
X0294457Y0124631D01*
X0293754Y0125129D02*
X0258246Y0125129D01*
X0258948Y0125628D02*
X0293052Y0125628D01*
X0292349Y0126126D02*
X0259651Y0126126D01*
X0260443Y0126625D02*
X0291557Y0126625D01*
X0290655Y0127123D02*
X0261345Y0127123D01*
X0262247Y0127622D02*
X0289753Y0127622D01*
X0288796Y0128120D02*
X0263204Y0128120D01*
X0264407Y0128619D02*
X0287593Y0128619D01*
X0286389Y0129117D02*
X0265611Y0129117D01*
X0267131Y0129616D02*
X0284869Y0129616D01*
X0283139Y0130114D02*
X0268861Y0130114D01*
X0271473Y0130613D02*
X0280527Y0130613D01*
X0302398Y0115159D02*
X0249602Y0115159D01*
X0249327Y0114661D02*
X0302673Y0114661D01*
X0302949Y0114162D02*
X0249051Y0114162D01*
X0248825Y0113664D02*
X0303175Y0113664D01*
X0303382Y0113165D02*
X0248618Y0113165D01*
X0248412Y0112667D02*
X0303588Y0112667D01*
X0303795Y0112168D02*
X0248205Y0112168D01*
X0247999Y0111670D02*
X0304001Y0111670D01*
X0304208Y0111171D02*
X0247792Y0111171D01*
X0247616Y0110672D02*
X0304384Y0110672D01*
X0304528Y0110174D02*
X0247472Y0110174D01*
X0247328Y0109675D02*
X0304672Y0109675D01*
X0304815Y0109177D02*
X0247185Y0109177D01*
X0247041Y0108678D02*
X0304959Y0108678D01*
X0305103Y0108180D02*
X0246897Y0108180D01*
X0246754Y0107681D02*
X0305246Y0107681D01*
X0305332Y0107183D02*
X0246668Y0107183D01*
X0246584Y0106684D02*
X0305416Y0106684D01*
X0305501Y0106186D02*
X0246499Y0106186D01*
X0246414Y0105687D02*
X0305586Y0105687D01*
X0305670Y0105189D02*
X0246330Y0105189D01*
X0246245Y0104690D02*
X0305755Y0104690D01*
X0305821Y0104192D02*
X0246179Y0104192D01*
X0246151Y0103693D02*
X0305849Y0103693D01*
X0305877Y0103195D02*
X0246123Y0103195D01*
X0246095Y0102696D02*
X0305905Y0102696D01*
X0305933Y0102198D02*
X0246067Y0102198D01*
X0246039Y0101699D02*
X0305961Y0101699D01*
X0305989Y0101201D02*
X0246011Y0101201D01*
X0246017Y0100702D02*
X0305983Y0100702D01*
X0305955Y0100204D02*
X0246045Y0100204D01*
X0246073Y0099705D02*
X0305927Y0099705D01*
X0305899Y0099207D02*
X0246101Y0099207D01*
X0246129Y0098708D02*
X0305871Y0098708D01*
X0305843Y0098210D02*
X0246157Y0098210D01*
X0246185Y0097711D02*
X0305815Y0097711D01*
X0305739Y0097213D02*
X0246261Y0097213D01*
X0246346Y0096714D02*
X0305654Y0096714D01*
X0305569Y0096216D02*
X0246431Y0096216D01*
X0246516Y0095717D02*
X0305484Y0095717D01*
X0305400Y0095219D02*
X0246600Y0095219D01*
X0246685Y0094720D02*
X0305315Y0094720D01*
X0305218Y0094222D02*
X0246782Y0094222D01*
X0246925Y0093723D02*
X0305075Y0093723D01*
X0304931Y0093225D02*
X0247069Y0093225D01*
X0247213Y0092726D02*
X0304787Y0092726D01*
X0304644Y0092228D02*
X0247356Y0092228D01*
X0247500Y0091729D02*
X0304500Y0091729D01*
X0304357Y0091231D02*
X0247643Y0091231D01*
X0247832Y0090732D02*
X0304168Y0090732D01*
X0303961Y0090234D02*
X0248039Y0090234D01*
X0248245Y0089735D02*
X0303755Y0089735D01*
X0303548Y0089237D02*
X0248452Y0089237D01*
X0248658Y0088738D02*
X0303342Y0088738D01*
X0303135Y0088239D02*
X0248865Y0088239D01*
X0249105Y0087741D02*
X0302895Y0087741D01*
X0302620Y0087242D02*
X0249380Y0087242D01*
X0249656Y0086744D02*
X0302344Y0086744D01*
X0302068Y0086245D02*
X0249932Y0086245D01*
X0250207Y0085747D02*
X0301793Y0085747D01*
X0301517Y0085248D02*
X0250483Y0085248D01*
X0250803Y0084750D02*
X0301197Y0084750D01*
X0300843Y0084251D02*
X0251157Y0084251D01*
X0251511Y0083753D02*
X0300489Y0083753D01*
X0300135Y0083254D02*
X0251865Y0083254D01*
X0252218Y0082756D02*
X0299782Y0082756D01*
X0299421Y0082257D02*
X0252579Y0082257D01*
X0253024Y0081759D02*
X0298976Y0081759D01*
X0298530Y0081260D02*
X0253470Y0081260D01*
X0253915Y0080762D02*
X0298085Y0080762D01*
X0297639Y0080263D02*
X0254361Y0080263D01*
X0254811Y0079765D02*
X0297189Y0079765D01*
X0296631Y0079266D02*
X0255369Y0079266D01*
X0255927Y0078768D02*
X0296073Y0078768D01*
X0295515Y0078269D02*
X0256485Y0078269D01*
X0257043Y0077771D02*
X0294957Y0077771D01*
X0294320Y0077272D02*
X0257680Y0077272D01*
X0258382Y0076774D02*
X0293618Y0076774D01*
X0292915Y0076275D02*
X0259085Y0076275D01*
X0259788Y0075777D02*
X0292212Y0075777D01*
X0291382Y0075278D02*
X0260618Y0075278D01*
X0261520Y0074780D02*
X0290480Y0074780D01*
X0289578Y0074281D02*
X0262422Y0074281D01*
X0263438Y0073783D02*
X0288562Y0073783D01*
X0287358Y0073284D02*
X0264642Y0073284D01*
X0265845Y0072786D02*
X0286155Y0072786D01*
X0284532Y0072287D02*
X0267468Y0072287D01*
X0269198Y0071789D02*
X0282802Y0071789D01*
X0279956Y0071290D02*
X0272044Y0071290D01*
D15*
X0081000Y0051000D03*
X0091000Y0051000D03*
X0061000Y0071000D03*
X0051000Y0071000D03*
X0051000Y0101000D03*
X0041000Y0101000D03*
X0021000Y0101000D03*
X0011000Y0101000D03*
X0051000Y0131000D03*
X0061000Y0131000D03*
X0078500Y0151000D03*
X0088500Y0151000D03*
X0126000Y0131000D03*
X0136000Y0131000D03*
X0153500Y0151000D03*
X0163500Y0151000D03*
X0181000Y0171000D03*
X0191000Y0171000D03*
X0211000Y0141000D03*
X0221000Y0141000D03*
X0241000Y0161000D03*
X0251000Y0161000D03*
X0271000Y0181000D03*
X0281000Y0181000D03*
X0206000Y0101000D03*
X0196000Y0101000D03*
X0136000Y0071000D03*
X0126000Y0071000D03*
X0154750Y0051000D03*
X0164750Y0051000D03*
X0181915Y0032102D03*
X0191915Y0032102D03*
X0211315Y0062152D03*
X0221315Y0062152D03*
X0241000Y0041000D03*
X0251000Y0041000D03*
X0271000Y0021000D03*
X0281000Y0021000D03*
X0121000Y0101000D03*
X0111000Y0101000D03*
D16*
X0226000Y0088200D03*
X0226000Y0113800D03*
D17*
X0086000Y0091000D03*
D18*
X0076000Y0091000D03*
X0076000Y0101000D03*
X0086000Y0101000D03*
X0086000Y0111000D03*
X0076000Y0111000D03*
M02*
