G75*
%MOIN*%
%OFA0B0*%
%FSLAX25Y25*%
%IPPOS*%
%LPD*%
%AMOC8*
5,1,8,0,0,1.08239X$1,22.5*
%
%ADD10C,0.13100*%
%ADD11OC8,0.07400*%
%ADD12OC8,0.15600*%
%ADD13C,0.08000*%
%ADD14OC8,0.09200*%
%ADD15R,0.08000X0.08000*%
%ADD16OC8,0.08000*%
D10*
X0074750Y0069750D03*
X0074750Y0132250D03*
D11*
X0146000Y0116000D03*
X0146000Y0106000D03*
X0146000Y0096000D03*
X0146000Y0086000D03*
X0176000Y0086000D03*
X0176000Y0096000D03*
X0176000Y0106000D03*
X0176000Y0116000D03*
D12*
X0276000Y0143000D03*
X0276000Y0059000D03*
D13*
X0081000Y0051000D03*
X0091000Y0051000D03*
X0061000Y0071000D03*
X0051000Y0071000D03*
X0051000Y0101000D03*
X0041000Y0101000D03*
X0021000Y0101000D03*
X0011000Y0101000D03*
X0051000Y0131000D03*
X0061000Y0131000D03*
X0078500Y0151000D03*
X0088500Y0151000D03*
X0126000Y0131000D03*
X0136000Y0131000D03*
X0153500Y0151000D03*
X0163500Y0151000D03*
X0181000Y0171000D03*
X0191000Y0171000D03*
X0211000Y0141000D03*
X0221000Y0141000D03*
X0241000Y0161000D03*
X0251000Y0161000D03*
X0271000Y0181000D03*
X0281000Y0181000D03*
X0206000Y0101000D03*
X0196000Y0101000D03*
X0136000Y0071000D03*
X0126000Y0071000D03*
X0154750Y0051000D03*
X0164750Y0051000D03*
X0181915Y0032102D03*
X0191915Y0032102D03*
X0211315Y0062152D03*
X0221315Y0062152D03*
X0241000Y0041000D03*
X0251000Y0041000D03*
X0271000Y0021000D03*
X0281000Y0021000D03*
X0121000Y0101000D03*
X0111000Y0101000D03*
D14*
X0226000Y0088200D03*
X0226000Y0113800D03*
D15*
X0086000Y0091000D03*
D16*
X0076000Y0091000D03*
X0076000Y0101000D03*
X0086000Y0101000D03*
X0086000Y0111000D03*
X0076000Y0111000D03*
M02*
