%
M48
M72
T01C0.0320
T02C0.0400
T03C0.0512
T04C0.0787
T05C0.1250
%
T01
X8100Y5100
X9100Y5100
X6100Y7100
X5100Y7100
X5100Y10100
X4100Y10100
X2100Y10100
X1100Y10100
X5100Y13100
X6100Y13100
X7850Y15100
X8850Y15100
X12600Y13100
X13600Y13100
X14600Y11600
X14600Y10600
X14600Y9600
X14600Y8600
X13600Y7100
X12600Y7100
X15475Y5100
X16475Y5100
X18192Y3210
X19192Y3210
X21131Y6215
X22131Y6215
X24100Y4100
X25100Y4100
X27100Y2100
X28100Y2100
X17600Y8600
X17600Y9600
X17600Y10600
X17600Y11600
X19600Y10100
X20600Y10100
X21100Y14100
X22100Y14100
X24100Y16100
X25100Y16100
X27100Y18100
X28100Y18100
X19100Y17100
X18100Y17100
X16350Y15100
X15350Y15100
X12100Y10100
X11100Y10100
T02
X8600Y10100
X7600Y10100
X7600Y11100
X8600Y11100
X8600Y9100
X7600Y9100
T03
X22600Y8820
X22600Y11380
T04
X27600Y14300
X27600Y5900
T05
X7475Y6975
X7475Y13225
M30
